PathFileType	4	(X/Y/Z)	C:\Users\Basilio\Documents\Thesis Gigler\squatting_fais\c3dfiles\073\SLS_front_pre1\markers_experimental.trc
DataRate	CameraRate	NumFrames	NumMarkers	Units	OrigDataRate	OrigDataStartFrame	OrigNumFrames
200.000000	200.000000	4	61	mm	200.000000	0	1395
Frame#	Time	FHD			LBHD			RBHD			C7			T10			CLAV			LSHO			LUUPA			LMUPA			LDUPA			LLEP			LMEP			LRAD			LUL			LRFIN			RSHO			RUPA1			RMUPA			RDUPA			RLEP			RMEP			RUL			RUFIN			LASI			RASI			USACR			LSACR			RSACR			LTHI1			LTHI2			LTHI3			LTHI4			LLFC			LMFC			LTIB1			LTIB2			LTIB3			LTIB4			LLMAL			LMMAL			LHEE			LMT1			LMT2			LMT5			RTHI			RTHI2			RTHI3			RTHI4			RLFC			RMFC			RTIB1			RTIB2			RTIB3			RTIB4			RLMAL			RMMAL			RHEE			RMT1			RMT2			RMT5			RRAD			
		X1	Y1	Z1	X2	Y2	Z2	X3	Y3	Z3	X4	Y4	Z4	X5	Y5	Z5	X6	Y6	Z6	X7	Y7	Z7	X8	Y8	Z8	X9	Y9	Z9	X10	Y10	Z10	X11	Y11	Z11	X12	Y12	Z12	X13	Y13	Z13	X14	Y14	Z14	X15	Y15	Z15	X16	Y16	Z16	X17	Y17	Z17	X18	Y18	Z18	X19	Y19	Z19	X20	Y20	Z20	X21	Y21	Z21	X22	Y22	Z22	X23	Y23	Z23	X24	Y24	Z24	X25	Y25	Z25	X26	Y26	Z26	X27	Y27	Z27	X28	Y28	Z28	X29	Y29	Z29	X30	Y30	Z30	X31	Y31	Z31	X32	Y32	Z32	X33	Y33	Z33	X34	Y34	Z34	X35	Y35	Z35	X36	Y36	Z36	X37	Y37	Z37	X38	Y38	Z38	X39	Y39	Z39	X40	Y40	Z40	X41	Y41	Z41	X42	Y42	Z42	X43	Y43	Z43	X44	Y44	Z44	X45	Y45	Z45	X46	Y46	Z46	X47	Y47	Z47	X48	Y48	Z48	X49	Y49	Z49	X50	Y50	Z50	X51	Y51	Z51	X52	Y52	Z52	X53	Y53	Z53	X54	Y54	Z54	X55	Y55	Z55	X56	Y56	Z56	X57	Y57	Z57	X58	Y58	Z58	X59	Y59	Z59	X60	Y60	Z60	X61	Y61	Z61	

1	0	-266.9006347656251	1701.819091796875	-796.7622070312502	-398.9043884277345	1669.99267578125	-830.5831298828127	-428.5596923828126	1642.592651367188	-700.1503906250001	-455.760223388672	1538.275024414063	-769.5654907226565	-454.3449707031251	1196.215209960938	-777.0310668945315	-323.9628906250001	1467.630249023438	-767.1480712890626	-346.7690734863282	1502.730346679688	-920.925476074219	-254.7956237792969	1421.599243164063	-1004.444946289063	-215.5366210937501	1444.99658203125	-983.5012207031252	-190.9156036376953	1395.359130859375	-1009.007873535156	-86.72791290283205	1372.219848632813	-1006.625793457031	-91.14033508300783	1322.296997070313	-956.5825805664065	170.4962463378907	1411.045532226563	-897.4080810546877	174.8387145996094	1400.24853515625	-970.8191528320315	251.2400360107422	1423.845825195313	-890.1304321289065	-347.5952758789063	1489.297607421875	-615.1067504882814	-250.2834777832032	1383.826416015625	-525.1967163085939	-211.4593048095704	1409.028076171875	-538.3793334960939	-186.4840393066407	1358.050048828125	-519.6560058593751	-94.37729644775392	1344.025634765625	-519.5467529296876	-95.94895172119142	1293.693603515625	-585.1613159179689	167.7140655517578	1385.7333984375	-553.4148559570314	250.5760650634766	1407.96435546875	-628.9007568359376	-272.4210815429688	1062.880737304688	-916.0482177734377	-260.8385009765626	1040.795654296875	-663.6524047851564	-456.6123657226564	1096.476806640625	-776.6551513671877	-467.8262634277345	1068.807250976563	-806.7062988281252	-468.1708068847657	1062.7080078125	-750.8638916015626	-303.8501892089844	736.2011718750001	-975.8670043945315	-268.0416259765626	660.7357177734376	-959.6219482421877	-227.3887023925782	666.1746826171876	-931.7644042968752	-295.7911682128907	608.8643188476564	-953.9124755859377	-297.5306701660157	547.4652709960939	-954.823425292969	-299.8693542480469	540.4793701171876	-817.3110961914065	-261.1640930175782	346.9734497070313	-906.5178222656252	-320.8560485839844	310.3785400390626	-958.9275512695315	-281.0435180664063	300.7690124511719	-938.4074707031252	-286.4077453613282	222.5438537597657	-905.4441528320315	-355.6410217285157	108.5855560302735	-930.7454223632815	-345.4470520019532	134.648910522461	-847.6245727539065	-418.0830993652345	88.20699310302736	-892.0516357421877	-201.4667510986329	56.13319778442384	-839.2293090820315	-200.0733947753907	51.19237899780275	-877.1491699218752	-232.6518096923829	33.4416847229004	-932.896667480469	-356.9885559082032	803.5443115234377	-607.8154296875001	-324.1957702636719	746.0538940429689	-609.8228759765626	-290.7632141113282	746.4048461914064	-613.1129150390626	-355.4905090332032	671.5407714843751	-634.9490966796876	-344.2647399902344	521.6727905273439	-658.6751098632814	-337.7582397460938	516.5350341796876	-789.5299072265627	-298.6817932128907	363.5510864257813	-753.5007324218751	-325.2900695800782	278.1015319824219	-690.4213867187501	-299.6443176269532	279.0289001464844	-731.9010620117189	-315.1757202148438	235.7449035644532	-767.5145874023439	-367.2481994628907	102.7223052978516	-724.3496093750001	-357.0217285156251	129.7137603759766	-808.6993408203127	-434.0399475097657	83.4171600341797	-782.543395996094	-208.4699401855469	56.28403091430665	-786.898132324219	-210.7553710937501	52.44119262695314	-745.6741943359376	-256.2761535644532	34.64415359497071	-699.8392333984376	nan	nan	nan	
2	0.005	-267.2376708984376	1702.01904296875	-796.6377563476565	-399.4697570800782	1670.019409179688	-830.4641113281252	-429.0292358398439	1642.485595703125	-700.1650390625001	-456.1056213378907	1538.235473632813	-769.5557250976565	-454.4773254394532	1196.211547851563	-776.9200439453127	-324.1868896484376	1467.672119140625	-767.1495971679689	-347.0731811523438	1502.747314453125	-920.922302246094	-255.0636901855469	1421.612060546875	-1004.441833496094	-215.8126525878907	1445.080810546875	-983.4979248046877	-191.27197265625	1395.3427734375	-1009.029541015625	-86.92320251464845	1372.370849609375	-1006.526550292969	-91.27328491210939	1322.51318359375	-956.5606689453127	170.2832336425782	1411.449340820313	-897.3519287109377	174.5560455322266	1400.525390625	-970.7796020507815	251.0436096191407	1424.166748046875	-890.0732421875002	-347.9024353027344	1489.3720703125	-615.0917358398439	-250.5171966552735	1383.954223632813	-525.1470336914064	-211.7261199951172	1409.169189453125	-538.3236083984376	-186.7099761962891	1358.267944335938	-519.6029052734376	-94.61650848388673	1344.284790039063	-519.4238281250001	-96.14495849609378	1293.908447265625	-585.1249389648439	167.5241241455078	1386.150634765625	-553.4525756835939	250.3028411865235	1408.397216796875	-628.9762573242189	-272.5364074707032	1062.927124023438	-915.9471435546877	-260.8784790039063	1040.790283203125	-663.5742797851564	-456.7361145019532	1096.458618164063	-776.5021972656252	-467.912078857422	1068.782958984375	-806.5628662109377	-468.2330322265626	1062.677612304688	-750.7716674804689	-303.9129638671876	736.1954956054689	-975.7937622070315	-268.0955505371094	660.7545166015626	-959.4915161132815	-227.491928100586	666.1748657226564	-931.7087402343752	-295.8981018066407	608.8624877929689	-953.8037719726565	-297.6240234375001	547.5348510742189	-954.7710571289065	-299.8429870605469	540.5041503906251	-817.250183105469	-261.1722717285157	346.9969482421876	-906.5181274414065	-320.9268493652344	310.3420104980469	-958.881530761719	-281.0932922363282	300.8031921386719	-938.3643188476565	-286.4336242675782	222.5152282714844	-905.4451904296877	-355.5895080566407	108.5526885986328	-930.743591308594	-345.4202880859376	134.6531677246094	-847.585632324219	-418.0904541015626	88.19725799560548	-892.0527954101565	-201.5152740478516	56.07083129882814	-839.264343261719	-200.0617065429688	51.21546173095705	-877.147155761719	-232.6624908447266	33.46788406372071	-932.856628417969	-357.0392761230469	803.5733642578127	-607.7058715820314	-324.2575378417969	746.0494995117189	-609.6798706054689	-290.8613891601563	746.3821411132814	-613.0449218750001	-355.6630859375001	671.5501098632814	-634.8414306640626	-344.5816040039063	521.6768798828126	-658.5475463867189	-338.1403808593751	516.4932861328126	-789.4287109375002	-298.8560791015626	363.6365661621094	-753.3746337890626	-325.4191589355469	278.1511840820313	-690.3260498046876	-299.7761230468751	279.0789489746094	-731.8530883789064	-315.2480468750001	235.7714538574219	-767.4503784179689	-367.2519836425782	102.6844024658203	-724.3204956054689	-357.0220336914063	129.6946868896485	-808.6511230468752	-434.059051513672	83.37380981445314	-782.550231933594	-208.4582061767579	56.31907653808595	-786.8923339843752	-210.7681121826172	52.40411758422853	-745.6655883789064	-256.2861938476563	34.61148071289063	-699.8305053710939	nan	nan	nan	
3	0.01	-267.5722045898438	1702.086181640625	-796.5757446289065	-399.912567138672	1670.099243164063	-830.3460693359377	-429.4365844726564	1642.396118164063	-700.0232543945314	-456.4714355468751	1538.152099609375	-769.5156860351565	-454.6282653808595	1196.136108398438	-776.7930297851565	-324.5126953125001	1467.774291992188	-767.1262817382814	-347.3918457031251	1502.748291015625	-920.912048339844	-255.3048706054688	1421.665893554688	-1004.410949707031	-216.0857086181641	1445.1572265625	-983.4704589843752	-191.5162353515625	1395.4189453125	-1008.978088378906	-87.18029022216798	1372.491577148438	-1006.486877441406	-91.4460906982422	1322.661865234375	-956.4988403320315	170.0427398681641	1411.80419921875	-897.2768554687502	174.3131866455078	1400.836303710938	-970.724304199219	250.8065185546876	1424.478149414063	-890.0095825195315	-348.2042236328126	1489.447387695313	-615.1004638671876	-250.7474517822266	1384.0712890625	-525.0935668945314	-212.0216979980469	1409.359497070313	-538.2991333007814	-186.9347686767578	1358.425537109375	-519.5028686523439	-94.80612945556642	1344.491455078125	-519.3889770507814	-96.33653259277347	1294.142333984375	-585.0502929687501	167.2769165039063	1386.546630859375	-553.4891967773439	250.0385437011719	1408.82763671875	-629.0253295898439	-272.6902465820313	1062.947021484375	-915.8606567382815	-260.9040832519532	1040.81494140625	-663.5168457031251	-456.8044433593751	1096.44921875	-776.3645019531252	-468.0108032226564	1068.752563476563	-806.4270629882815	-468.3014526367189	1062.646606445313	-750.5822753906251	-304.0299072265626	736.2100219726564	-975.6887207031252	-268.1345520019532	660.7903442382814	-959.4246215820315	-227.5362548828126	666.1994628906251	-931.591979980469	-295.9542846679688	608.9003295898439	-953.730163574219	-297.6081237792969	547.5479125976564	-954.6966552734377	-299.8888549804688	540.5805664062501	-817.187927246094	-261.2156982421876	347.0105590820313	-906.487243652344	-320.9178466796876	310.3410339355469	-958.8532714843752	-281.0887451171876	300.8570251464844	-938.2895507812502	-286.3918457031251	222.5746459960938	-905.386413574219	-355.5832214355469	108.5764617919922	-930.6907348632815	-345.4563293457032	134.65966796875	-847.569763183594	-418.0841674804689	88.20922088623048	-892.0487060546877	-201.4681549072266	56.11344528198244	-839.2695922851565	-200.1360778808594	51.19855880737306	-877.1372680664065	-232.7050018310547	33.46860885620118	-932.8494262695315	-357.1347045898438	803.586120605469	-607.5953369140626	-324.3373413085938	746.0584106445314	-609.6064453125001	-290.9428405761719	746.3923950195314	-612.9920043945314	-355.8258972167969	671.5715332031251	-634.6731567382814	-344.8450317382813	521.6701049804689	-658.4434204101564	-338.4957885742188	516.5719604492189	-789.3441162109377	-299.0373840332032	363.7181701660157	-753.3217773437501	-325.5657348632813	278.1610717773438	-690.2843017578126	-299.9435119628907	279.1125488281251	-731.7663574218751	-315.3930969238282	235.7802734375001	-767.4144287109376	-367.2665405273438	102.6765747070313	-724.2857055664064	-357.1015319824219	129.7107543945313	-808.6254882812502	-434.0763244628907	83.35037994384767	-782.5161743164065	-208.4838104248047	56.32796096801759	-786.863708496094	-210.7785949707032	52.42358016967775	-745.6600952148439	-256.2810058593751	34.62789154052735	-699.8301391601564	nan	nan	nan	
4	0.015	-268.0448913574219	1702.259033203125	-796.413269042969	-400.4210815429689	1670.119750976563	-830.2692871093752	-429.7208251953126	1642.266967773438	-699.8222656250001	-456.8239746093751	1538.095458984375	-769.5276489257815	-454.7319946289064	1196.09716796875	-776.664489746094	-324.8425598144532	1467.842651367188	-767.1313476562501	-347.7062988281251	1502.75	-920.9016113281252	-255.5532989501954	1421.669189453125	-1004.371704101563	-216.3801269531251	1445.240966796875	-983.4514160156252	-191.7130889892578	1395.44921875	-1008.899536132813	-87.36862945556642	1372.636474609375	-1006.464111328125	-91.67583465576173	1322.792358398438	-956.3806762695315	169.7657623291016	1412.135009765625	-897.1629638671877	174.0877685546875	1401.134887695313	-970.6813964843752	250.5603332519532	1424.744262695313	-889.947937011719	-348.5200805664063	1489.516723632813	-615.0791015625001	-250.9942169189454	1384.26513671875	-525.0295410156251	-212.2282104492188	1409.55908203125	-538.2467651367189	-187.134994506836	1358.662231445313	-519.3997192382814	-94.99216461181642	1344.71142578125	-519.3572387695314	-96.54505920410159	1294.358520507813	-584.9989624023439	167.0357818603516	1386.943481445313	-553.6090087890626	249.761947631836	1409.236450195313	-629.1632080078126	-272.8183593750001	1062.96728515625	-915.8076782226565	-260.9361877441407	1040.84814453125	-663.4341430664064	-456.9054565429689	1096.44091796875	-776.265075683594	-468.1204833984376	1068.747314453125	-806.2930297851565	-468.3901977539064	1062.650268554688	-750.4260253906251	-304.1046752929688	736.2506713867189	-975.6196899414065	-268.1946105957032	660.8285522460939	-959.3439941406252	-227.5886535644532	666.2399291992189	-931.5214843750002	-295.9904785156251	608.9008789062501	-953.664978027344	-297.6684265136719	547.5444335937501	-954.578308105469	-299.7836914062501	540.5673828125001	-817.121520996094	-261.1893920898438	347.0236206054688	-906.3831176757815	-320.9924316406251	310.3928222656251	-958.8084106445315	-281.1228332519532	300.8590698242188	-938.2803344726565	-286.4503479003907	222.5576782226563	-905.378112792969	-355.5872192382813	108.6187820434571	-930.7198486328127	-345.4537048339844	134.6448059082032	-847.5428466796877	-418.090057373047	88.22161865234376	-892.041198730469	-201.4162139892579	56.12871170043947	-839.1884765625002	-200.0931701660157	51.20248413085939	-877.104675292969	-232.6474609375001	33.44513702392579	-932.8234863281252	-357.1867675781251	803.6154785156252	-607.4483642578126	-324.4503479003907	746.0417480468751	-609.5008544921876	-291.0635070800782	746.3885498046876	-612.9307861328126	-356.0033874511719	671.6080322265626	-634.5471801757814	-345.0986022949219	521.6958007812501	-658.3297119140626	-338.7905273437501	516.5292358398439	-789.2243652343752	-299.1790771484376	363.7940063476563	-753.2708129882814	-325.6696166992188	278.1259155273438	-690.2167358398439	-300.0801696777344	279.1677246093751	-731.7308349609376	-315.4501342773438	235.8089904785157	-767.3506469726564	-367.2662658691407	102.6445846557617	-724.2829589843751	-357.1324462890626	129.698959350586	-808.5916748046877	-434.0508117675782	83.33970642089845	-782.4998168945315	-208.5005493164063	56.34032821655275	-786.8406372070315	-210.7712707519532	52.43910217285158	-745.6785888671876	-256.2796020507813	34.60838317871094	-699.8273315429689	nan	nan	nan	
